<?xml version="1.0" encoding="UTF-8"?>
<svg version="1.1" xmlns="http://www.w3.org/2000/svg" width="316" height="316">
<path d="M0 0 C104.28 0 208.56 0 316 0 C316 104.28 316 208.56 316 316 C211.72 316 107.44 316 0 316 C0 211.72 0 107.44 0 0 Z " fill="#FEFEFE" transform="translate(0,0)"/>
<path d="M0 0 C4.25620014 3.40277183 8.12993529 7.17104371 12 11 C12.65355469 11.59296875 13.30710938 12.1859375 13.98046875 12.796875 C29.72302096 27.35063036 40.87447159 51.80633191 42.19287109 73.11767578 C43.01033359 106.88135395 35.75519961 134.06722432 12.453125 159.48339844 C0.1556665 172.31804431 -15.20447378 180.7216386 -32 186 C-32.63534668 186.21027832 -33.27069336 186.42055664 -33.92529297 186.63720703 C-57.80574761 194.32938102 -85.19089685 191.19079792 -107.7421875 180.71484375 C-128.56234804 169.75555061 -144.50699479 154.67748022 -156 134 C-156.54527344 133.01902344 -157.09054688 132.03804687 -157.65234375 131.02734375 C-165.14162592 116.25840308 -167.43699522 100.97524515 -167.5 84.5625 C-167.50628418 83.33152588 -167.51256836 82.10055176 -167.51904297 80.83227539 C-167.13582448 53.08986086 -155.10168049 29.54574771 -136.1875 9.875 C-126.76873906 0.73113377 -116.60899797 -5.74198788 -104.76269531 -11.18798828 C-103.31894051 -11.85307533 -101.88793209 -12.54576871 -100.4609375 -13.24609375 C-68.71166934 -27.66228088 -27.59298626 -19.92699781 0 0 Z " fill="#030303" transform="translate(220,71)"/>
<path d="M0 0 C4.41034323 -0.27392246 8.81608216 -0.47235258 13.23242188 -0.60424805 C14.73069514 -0.65925571 16.22838605 -0.73410328 17.72460938 -0.82983398 C30.10658777 -1.60164397 30.10658777 -1.60164397 34.62524414 2.22070312 C36.69246365 5.0522296 38.3637386 7.90251308 40 11 C40.93604422 12.386795 41.89087928 13.76125286 42.87109375 15.1171875 C43.728213 16.36866286 44.58368881 17.62126541 45.4375 18.875 C48.171919 22.87957276 50.90748917 26.88156042 53.703125 30.84375 C54.12279541 31.44074707 54.54246582 32.03774414 54.97485352 32.65283203 C56.11954558 34.27849295 57.26862058 35.90106512 58.41796875 37.5234375 C60 40 60 40 60 42 C66.8180977 35.25443525 73.27279589 28.20230526 79.3125 20.75 C80.04210937 19.86183594 80.77171875 18.97367188 81.5234375 18.05859375 C82.86367838 16.40337512 84.19794273 14.74285522 85.49707031 13.05517578 C95.09837761 0.59334509 95.09837761 0.59334509 100.0546875 -0.953125 C102.55600046 -0.93895326 104.61323293 -0.72734437 107 0 C101.92086563 7.05435329 96.2942424 13.5746186 90.60986328 20.14013672 C84.28927872 27.44226186 77.98763877 34.76170021 71.8125 42.1875 C71.09707031 43.04730469 70.38164062 43.90710938 69.64453125 44.79296875 C67.83015222 46.98743645 67.83015222 46.98743645 67 50 C68.04020277 52.15712218 68.04020277 52.15712218 69.69140625 54.40234375 C70.6033374 55.72238403 70.6033374 55.72238403 71.53369141 57.0690918 C72.20319824 58.0156665 72.87270508 58.96224121 73.5625 59.9375 C74.24489746 60.91952393 74.92729492 61.90154785 75.63037109 62.91333008 C77.74350635 65.94940752 79.87053743 68.97535883 82 72 C83.22071326 73.74432915 84.44080137 75.48909602 85.66015625 77.234375 C87.95315999 80.51352734 90.24915554 83.79055697 92.546875 87.06640625 C96.17215715 92.24167301 99.78472579 97.42537772 103.375 102.625 C103.94105957 103.43735107 104.50711914 104.24970215 105.09033203 105.08666992 C105.60450684 105.83408447 106.11868164 106.58149902 106.6484375 107.3515625 C107.10395996 108.00979004 107.55948242 108.66801758 108.02880859 109.34619141 C109 111 109 111 109 113 C81.14051159 116.30737534 81.14051159 116.30737534 73.27246094 111.24511719 C68.81394638 106.51601692 66.13127594 100.82438529 63.44482422 94.9609375 C61.04718487 90.0473569 57.9344539 85.66187057 54.8125 81.1875 C54.27012695 80.36403076 53.72775391 79.54056152 53.16894531 78.69213867 C52.66588867 77.9416626 52.16283203 77.19118652 51.64453125 76.41796875 C51.20471924 75.75563232 50.76490723 75.0932959 50.31176758 74.41088867 C49.66244263 73.71249878 49.66244263 73.71249878 49 73 C45.9251113 72.66034006 45.9251113 72.66034006 44.0546875 74.80078125 C43.33539063 75.62964844 42.61609375 76.45851563 41.875 77.3125 C41.07835937 78.22644531 40.28171875 79.14039063 39.4609375 80.08203125 C36.34622359 83.77519203 33.29511232 87.5164987 30.2578125 91.2734375 C27.32605126 94.81386889 24.23934311 98.19347997 21.11328125 101.5625 C19.02420415 103.97208246 17.33019097 106.47553343 15.5625 109.125 C13.53621454 111.84423686 12.6960907 112.85361622 9.34375 113.55859375 C6.82960382 113.56212485 4.47908588 113.40403613 2 113 C3.68341412 108.94000125 6.51153934 105.88735972 9.375 102.625 C10.46230696 101.37115218 11.54954457 100.11724421 12.63671875 98.86328125 C13.19407715 98.22342285 13.75143555 97.58356445 14.32568359 96.92431641 C16.95892787 93.89789013 19.5749269 90.85677432 22.1875 87.8125 C22.93277954 86.94455811 22.93277954 86.94455811 23.69311523 86.05908203 C27.55836839 81.54483392 31.33852168 76.96819695 35.0859375 72.35546875 C37.36619504 69.5493559 39.67791413 66.77152185 42 64 C38.83241925 57.69818145 34.98691502 52.04782179 30.85913086 46.35571289 C27.54323251 41.78027309 24.38225722 37.12288569 21.26953125 32.40625 C17.82407496 27.2070039 14.27458564 22.07762608 10.74291992 16.93676758 C8.01465819 12.96113339 5.29657552 8.97873 2.6015625 4.98046875 C2.10221191 4.24078857 1.60286133 3.5011084 1.08837891 2.73901367 C0 1 0 1 0 0 Z " fill="#F3F3F3" transform="translate(103,100)"/>
<path d="M0 0 C4.94209443 -0.97398941 9.08532789 -1.22238006 14 0 C18.29543025 3.40385229 21.03336446 8.38690404 23.81542969 13.02978516 C25.44226354 15.73558672 27.22253762 18.32887606 29 20.9375 C29.63679688 21.90558594 30.27359375 22.87367188 30.9296875 23.87109375 C37.39469393 33.64179214 44.14647727 43.22245362 50.875 52.8125 C59.65232254 65.32697616 68.29874121 77.92966401 76.8125 90.625 C77.23950195 91.25897705 77.66650391 91.8929541 78.10644531 92.54614258 C81 96.88222295 81 96.88222295 81 98 C75.94368806 98.84946041 70.97484277 99.47911232 66 98 C62.18158749 94.73668711 59.91056459 90.72547169 57.43603516 86.42285156 C54.58216121 81.60784901 51.37471291 77.01670348 48.25 72.375 C46.85754787 70.27769225 45.46562109 68.1800356 44.07421875 66.08203125 C39.9353988 59.87428791 35.67200445 53.76146408 31.37133789 47.6652832 C25.82197076 39.7851347 20.40668232 31.81609928 15.00244141 23.8359375 C12.00011146 19.40429024 8.99828201 14.97442109 5.921875 10.59375 C5.49108643 9.98007568 5.06029785 9.36640137 4.61645508 8.73413086 C3.53899631 7.2064108 2.455362 5.68305098 1.37109375 4.16015625 C0 2 0 2 0 0 Z " fill="#080808" transform="translate(117,107)"/>
<path d="M0 0 C0.99 0.33 1.98 0.66 3 1 C1 3 -1 5 -3 7 C-3.33 6.01 -3.66 5.02 -4 4 C-2.68 2.68 -1.36 1.36 0 0 Z " fill="#EFEFEF" transform="translate(120,115)"/>
</svg>
